<svg width="70px" height="70" viewBox="0 0 70 70" xmlns="http://www.w3.org/2000/svg">
  <defs></defs>
  <g fill="none" fill-rule="evenodd">
    <g fill-rule="nonzero">
      <g>
        <g fill="#ADD616">
          <path d="M8.644 34.961c0 7.256 2.951 13.835 7.717 18.6l-1.15 1.15c5.275 5.275 12.29 8.18 19.75 8.18V58.59c-6.311 0-12.245-2.457-16.707-6.92L17.122 52.8C12.552 48.23 9.72 41.92 9.72 34.96c0-13.919 11.323-25.242 25.241-25.242V8.644C20.45 8.644 8.644 20.45 8.644 34.961z" transform="translate(-245 -63) translate(245 63)"></path>
          <path d="M15.675 34.961c0 5.317 2.163 10.139 5.655 13.63l-1.147 1.148c3.948 3.947 9.195 6.121 14.778 6.121V51.56c-4.433 0-8.602-1.727-11.737-4.862l-1.134 1.135c-3.297-3.298-5.34-7.85-5.34-12.872 0-10.041 8.17-18.21 18.211-18.21v-1.076c-10.634 0-19.286 8.653-19.286 19.287z" transform="translate(-245 -63) translate(245 63)"></path>
          <path d="M10.24 10.24C3.637 16.843 0 25.623 0 34.96 0 44.3 3.637 53.08 10.24 59.683c6.603 6.603 15.383 10.24 24.72 10.24V65.62c-8.189 0-15.888-3.19-21.679-8.98-5.79-5.791-8.98-13.49-8.98-21.68 0-8.189 3.19-15.888 8.98-21.679 5.791-5.79 13.49-8.98 21.68-8.98V0C25.622 0 16.842 3.637 10.24 10.24z" transform="translate(-245 -63) translate(245 63)"></path>
        </g>
        <g fill="#FFF">
          <path d="M 21.83 7.11 L 16.523 7.11 C 15.893 6.256 15.143 5.615 14.273 5.188 C 13.405 4.761 12.415 4.548 11.307 4.548 C 10.413 4.548 9.563 4.715 8.76 5.05 C 7.957 5.386 7.245 5.874 6.625 6.514 C 5.964 7.186 5.453 7.961 5.093 8.841 C 4.732 9.72 4.551 10.623 4.551 11.548 C 4.551 13.581 5.205 15.288 6.511 16.665 C 7.817 18.042 9.416 18.732 11.307 18.732 C 12.395 18.732 13.374 18.529 14.243 18.122 C 15.113 17.714 15.816 17.125 16.356 16.352 L 21.678 16.352 C 20.641 18.62 19.258 20.322 17.53 21.462 C 15.8 22.6 13.737 23.169 11.337 23.169 C 9.669 23.169 8.132 22.849 6.723 22.209 C 5.315 21.569 4.051 20.618 2.933 19.357 C 1.987 18.31 1.27 17.117 0.783 15.78 C 0.295 14.443 0.05 13.013 0.05 11.487 C 0.05 9.941 0.345 8.475 0.935 7.087 C 1.525 5.699 2.389 4.436 3.528 3.297 C 4.606 2.241 5.804 1.44 7.12 0.895 C 8.438 0.351 9.853 0.08 11.368 0.08 C 13.798 0.08 15.876 0.66 17.599 1.819 C 19.322 2.978 20.732 4.742 21.831 7.111 L 21.83 7.11 Z M 134.682 0.521 L 134.682 4.425 L 130.503 4.425 L 130.503 22.728 L 126.171 22.728 L 126.171 4.425 L 134.682 0.521 Z M 149.369 22.728 L 137.382 22.728 L 137.382 0.521 L 149.369 0.521 L 149.369 4.425 L 141.682 4.425 L 141.682 9.489 L 149.369 9.489 L 149.369 13.332 L 141.682 13.332 L 141.682 18.823 L 149.369 18.823 L 149.369 22.728 Z" transform="translate(-245 -63) translate(245 63) translate(23.604 23.243)" style="fill: rgb(0, 0, 0);"></path>
        </g>
        <g fill="#FFF"></g>
      </g>
    </g>
  </g>
</svg>
